<?xml version="1.0" standalone="no"?>
<!DOCTYPE svg PUBLIC "-//W3C//DTD SVG 20010904//EN"
 "http://www.w3.org/TR/2001/REC-SVG-20010904/DTD/svg10.dtd">
<svg version="1.0" xmlns="http://www.w3.org/2000/svg"
 width="512.000000pt" height="512.000000pt" viewBox="0 0 512.000000 512.000000"
 preserveAspectRatio="xMidYMid meet">
<metadata>
Created by potrace 1.14, written by Peter Selinger 2001-2017
</metadata>
<g transform="translate(0.000000,512.000000) scale(0.100000,-0.100000)"
fill="#000000" stroke="none">
<path d="M1610 4622 c0 -5 -31 -8 -70 -7 -38 1 -70 -2 -70 -6 0 -4 -15 -9 -32
-12 -44 -6 -76 -15 -88 -22 -5 -3 -19 -8 -30 -10 -18 -4 -44 -14 -137 -57 -23
-11 -44 -18 -46 -16 -2 2 -11 -3 -20 -11 -10 -7 -17 -10 -17 -5 0 5 -4 4 -8
-2 -5 -8 -161 -89 -192 -99 -6 -2 -73 -32 -130 -57 -24 -11 -49 -22 -55 -23
-29 -7 -75 -30 -75 -38 0 -4 -4 -5 -10 -2 -5 3 -25 -1 -44 -10 -19 -9 -40 -14
-45 -10 -6 3 -11 2 -11 -4 0 -6 -16 -13 -35 -17 -19 -3 -35 -10 -35 -16 0 -5
-5 -6 -10 -3 -6 4 -18 1 -27 -7 -9 -7 -18 -12 -20 -10 -4 4 -73 -8 -93 -15
-17 -6 -33 -10 -70 -17 -14 -2 -45 -10 -70 -17 -25 -6 -57 -11 -72 -10 -14 1
-29 -2 -32 -7 -3 -6 -20 -8 -36 -6 l-30 5 0 -1825 0 -1826 143 0 c79 0 147 3
150 7 4 3 46 7 94 9 49 2 126 6 173 9 161 11 286 17 465 21 99 3 187 7 195 11
15 5 58 7 590 19 442 9 1120 13 1120 6 0 -4 123 -8 273 -9 149 -2 344 -5 432
-9 190 -7 512 -21 645 -28 52 -3 129 -7 170 -8 41 -2 80 -6 85 -10 6 -3 44 -7
85 -7 41 0 122 -5 180 -11 58 -6 143 -13 190 -15 47 -2 94 -5 105 -7 20 -3 20
3 23 1852 l2 1855 -27 2 c-60 5 -131 14 -203 24 -41 6 -82 11 -90 11 -8 0 -20
5 -26 10 -6 4 -19 6 -28 2 -9 -4 -16 -1 -16 6 0 8 -9 11 -25 8 -14 -3 -25 -2
-25 2 0 8 -76 24 -97 21 -7 -1 -13 3 -13 9 0 6 -6 10 -12 9 -18 -3 -97 20
-130 38 -16 8 -28 12 -28 9 0 -2 -24 5 -52 16 -29 10 -57 20 -63 22 -19 4
-110 38 -128 47 -10 5 -22 7 -27 4 -5 -3 -11 -1 -14 4 -5 7 -88 40 -116 46 -3
1 -23 9 -45 19 -21 9 -46 18 -55 20 -8 2 -28 8 -43 14 -16 7 -35 12 -43 12 -8
0 -14 4 -14 8 0 4 -9 9 -20 10 -43 4 -50 6 -50 14 0 5 -6 8 -12 7 -13 -2 -60
8 -88 18 -8 4 -25 6 -37 6 -13 0 -23 3 -23 7 0 4 -6 7 -12 8 -7 1 -33 6 -58
12 -25 6 -60 11 -77 12 -18 1 -33 4 -33 7 0 8 -342 7 -355 -1 -6 -3 -22 -5
-37 -4 -16 1 -28 -2 -28 -6 0 -4 -13 -8 -29 -8 -17 0 -32 -4 -36 -10 -3 -5
-12 -7 -20 -3 -8 3 -15 0 -15 -6 0 -7 -6 -11 -12 -10 -7 1 -26 -3 -41 -9 -16
-7 -34 -12 -40 -12 -7 0 -22 -7 -33 -15 -12 -8 -24 -11 -28 -8 -3 3 -6 2 -6
-4 0 -10 -20 -19 -59 -28 -8 -2 -17 -8 -20 -13 -3 -5 -16 -12 -28 -16 -13 -4
-23 -12 -23 -17 0 -6 -4 -8 -9 -4 -5 3 -15 0 -23 -7 -7 -7 -46 -35 -86 -61
l-73 -48 -40 31 c-21 18 -39 28 -39 23 0 -4 -4 -3 -8 2 -8 11 -69 55 -76 55
-3 0 -28 13 -56 30 -27 16 -50 27 -50 24 0 -3 -7 2 -16 10 -8 9 -22 16 -30 16
-8 0 -14 5 -14 11 0 5 -4 8 -9 4 -5 -3 -13 0 -16 6 -4 5 -13 8 -21 5 -8 -3
-14 -1 -14 4 0 6 -8 10 -18 10 -10 0 -22 4 -27 8 -10 9 -94 36 -145 48 -14 3
-53 7 -87 8 -35 1 -66 5 -69 9 -10 10 -44 9 -44 -1z"/>
</g>
</svg>
